<svg xmlns="http://www.w3.org/2000/svg" viewBox="0 0 552.78 130.24"><defs><style>.cls-1{fill:red;}.cls-2{fill:#fff;}</style></defs><g id="Layer_2" data-name="Layer 2"><g id="Layer_1-2" data-name="Layer 1"><path class="cls-1" d="M422,76.15h11v3.24H426.7v24.49H433v3.25H422Z"/><path class="cls-1" d="M541.82,103.88h6.27V79.39h-6.27V76.15h11v31h-11Z"/><polygon class="cls-1" points="149.13 55.92 149.13 18.65 93.2 18.65 74.56 37.28 55.92 18.65 0 18.65 0 55.92 18.65 74.56 0 93.2 0 130.24 55.92 130.24 74.56 111.59 93.2 130.24 149.13 130.24 149.13 93.2 130.48 74.56 149.13 55.92"/><polygon class="cls-2" points="113.31 108.04 93.2 87.92 73.09 108.04 22.2 108.04 22.2 76.03 42.3 55.92 22.2 35.81 22.2 3.55 73.09 3.55 93.2 23.66 113.31 3.55 164.21 3.55 164.21 35.81 144.1 55.92 164.21 76.03 164.21 108.04 113.31 108.04"/><path class="cls-1" d="M160.66,7.1V34.34L144.1,50.9l-5.07,5L144.1,61,160.66,77.5v27H114.79L98.22,87.93l-5-5.07-5.07,5.07L71.62,104.49H25.74v-27L42.3,60.94l5-5.07-5-5L25.74,34.34V7.1H71.62L88.18,23.66l5.07,5,5-5L114.79,7.1h45.87m7.1-7.1H111.84L93.2,18.64,74.56,0H18.64V37.28L37.28,55.92,18.64,74.56v37H74.56L93.2,93l18.64,18.64h55.92v-37L149.13,55.92l18.63-18.64Z"/><rect x="61.73" y="50.71" width="10.18" height="10.18"/><rect x="88.12" y="50.71" width="10.18" height="10.18"/><rect x="114.5" y="50.71" width="10.18" height="10.18"/><rect x="114.5" y="50.71" width="10.18" height="10.18"/><path d="M204.5,30.9c0-10.09,6.58-15.84,14.72-15.84A13.62,13.62,0,0,1,228.49,19l-4.36,4.91a7.1,7.1,0,0,0-4.91-1.95c-3.7,0-6.57,3.25-6.57,8.72,0,5.65,2.87,8.79,6.95,8.79a6.81,6.81,0,0,0,4.91-2.4l4.35,4.81a12.75,12.75,0,0,1-10.09,4.45C211.26,46.28,204.5,41.18,204.5,30.9Z"/><path d="M238.77,36.18V19.69h-7V13.48h14.92v23a3.14,3.14,0,0,0,2.82,3.43,3.53,3.53,0,0,0,.65,0,10.21,10.21,0,0,0,3.33-.65l1.72,5.83a22,22,0,0,1-7.18,1.21C241.92,46.28,238.77,42.2,238.77,36.18Z"/><path d="M259.7,34.15a12,12,0,1,1,23.9,0h0a12,12,0,1,1-23.9,0Zm15.75,0c0-3.52-1.11-5.76-3.8-5.76s-3.83,2.24-3.83,5.76,1.1,5.74,3.79,5.74S275.45,37.66,275.45,34.15Z"/><path d="M288.11,36.82V22.56h8V35.81c0,2.6.56,3.7,2.64,3.7,1.35,0,2.27-.36,3.48-2V22.56h8V45.72h-6.48l-.56-3h-.18a9.5,9.5,0,0,1-7.51,3.61C290.27,46.28,288.11,42.61,288.11,36.82Z"/><path d="M315.27,34.15c0-7.6,4.82-12.18,9.68-12.18a6.83,6.83,0,0,1,5.42,2.38h.18L330.19,21V13.5h8V45.72h-6.48l-.56-2.13h-.18a9.13,9.13,0,0,1-6,2.69C319.07,46.28,315.27,41.64,315.27,34.15Zm14.92,4V29.6a4.34,4.34,0,0,0-3.05-1.1c-1.95,0-3.71,1.48-3.71,5.55s1.35,5.75,3.62,5.75A3.43,3.43,0,0,0,330.19,38.12Z"/><path d="M343.9,47.94h22.22v5.83H343.9Z"/><path d="M371.68,15.61h8.05L384.8,29l2.46,6.77h.18a107.36,107.36,0,0,1-1.12-11.46V15.61h7.58V45.72h-8l-5.07-13.48-2.39-6.72h-.19A113.59,113.59,0,0,1,379.32,37v8.7h-7.6Z"/><path d="M399.19,39.15c0-5.2,4.06-7.88,14.63-8.43-.28-1.68-1.85-2.42-4.45-2.42-1.94,0-3.88.65-6.66,1.95l-2.78-5.18A22.46,22.46,0,0,1,411,22c6.58,0,10.84,3.25,10.84,10.85V45.72H415.3l-.55-2.41h-.19a13.55,13.55,0,0,1-7.87,3C401.87,46.28,399.19,42.94,399.19,39.15Zm14.63-.74v-3c-5.65.19-7,1.48-7,3,0,1,.84,1.66,2.5,1.66A7.53,7.53,0,0,0,413.82,38.41Z"/><path d="M432,35.9V28.8h-5.56V22.85l5.92-.29,1-6.95h6.57v7h9.13v6.21h-9.13v7c0,3.29,1.53,4.31,4.49,4.31a13.36,13.36,0,0,0,4.21-.74L450,45.07a27.65,27.65,0,0,1-7.72,1.21C434.76,46.28,432,42.11,432,35.9Z"/><path d="M464.48,28.77h-8.8V22.56h16.77V45.72h-8Z"/><path d="M481.16,22.56h8l3,10.15c.69,2.32,1.25,4.72,1.9,7.23h.18c.65-2.51,1.21-4.91,1.9-7.23l3-10.1h7.6l-8.06,23.16h-9.13Z"/><path d="M510.14,34.15A11.89,11.89,0,0,1,521.74,22h.57c7.33,0,11,5,11,11.21a22,22,0,0,1-.32,3.34H516.17V31.37h11.35l-1.12,1.39c0-3-1.2-4.73-3.79-4.73-3,0-4.73,1.95-4.73,6.09,0,4.35,2.13,6.08,6.39,6.08a12.77,12.77,0,0,0,5.56-1.39l2.55,4.81a18.49,18.49,0,0,1-9.26,2.69C515.79,46.28,510.14,41.83,510.14,34.15Z"/><path d="M204.92,71.18h11.16c6.48,0,12,2.24,12,9.73,0,7.28-5.56,10.29-12,10.29h-3.25v10.09h-7.91ZM215.57,84.9c3.16,0,4.82-1.39,4.82-4s-1.66-3.43-4.82-3.43h-2.74V84.9Zm4.5-1,9.77,17.45H221l-6.26-12.17Z"/><path d="M232.31,89.72a11.88,11.88,0,0,1,11.6-12.17h.57c7.32,0,11,5,11,11.15a22,22,0,0,1-.32,3.34H238.31v-5.1h11.3l-1.07,1.39c0-3-1.19-4.73-3.79-4.73-3.05,0-4.73,2-4.73,6.09,0,4.35,2.13,6.09,6.39,6.09A12.91,12.91,0,0,0,252,94.39l2.6,4.72a18.39,18.39,0,0,1-9.26,2.69C237.93,101.85,232.31,97.39,232.31,89.72Z"/><path d="M259.47,108.43l2.27-5.66a10.75,10.75,0,0,0,4.49,1c2.82,0,3.75-1.2,3.75-4.35V84.34h-8.8V78.11H278v21c0,5.65-2.41,10.84-11.16,10.84A17,17,0,0,1,259.47,108.43Z"/><path d="M287.85,89.72a11.88,11.88,0,0,1,11.6-12.17H300c7.31,0,11,5,11,11.15a22,22,0,0,1-.32,3.34H293.88v-5.1h11.3l-1.12,1.39c0-3-1.19-4.73-3.79-4.73-3,0-4.73,2-4.73,6.09,0,4.35,2.13,6.09,6.39,6.09a12.91,12.91,0,0,0,5.56-1.39l2.6,4.72a18.36,18.36,0,0,1-9.26,2.69C293.5,101.85,287.85,97.39,287.85,89.72Z"/><path d="M316.29,69.05h8V86.38h.18l7-8.27h8.62L324.26,95.64v5.65h-8Zm9.91,22.42,4.51-4.91,9.91,14.73H332Z"/><path d="M348.62,91.47v-7.1h-5.56v-6l5.91-.31,1-7h6.57v7h9.13v6.21h-9.13v7c0,3.29,1.53,4.31,4.5,4.31a12.91,12.91,0,0,0,4.21-.74l1.39,5.74a27.56,27.56,0,0,1-7.69,1.21C351.4,101.85,348.62,97.68,348.62,91.47Z"/><path d="M371,98.33l3.31-4.91A18.14,18.14,0,0,0,383.47,96c2,0,2.87-.55,2.87-1.39,0-1.11-1.21-1.29-5.08-2.13-6.39-1.38-8.71-3.8-8.71-7.41,0-4.53,4.31-7.5,11-7.5a19.19,19.19,0,0,1,10.27,3.24l-3.52,4.73a15.31,15.31,0,0,0-7.49-2.13c-1.48,0-2.42.46-2.42,1.29,0,1,1.21,1.11,4.82,2,6.95,1.57,9,3.66,9,7.5,0,4.35-4.12,7.69-11.86,7.69A22,22,0,0,1,371,98.33Z"/><rect x="269.3" y="65.43" width="8.64" height="8.64"/><rect x="463.8" y="9.86" width="8.64" height="8.64"/><rect class="cls-1" x="483.05" y="78.14" width="8.64" height="8.64"/><path class="cls-1" d="M437.18,78.24h15.25V82.6H442.38v4.62h8.54v4.36h-8.54v5.3h10.4v4.36h-15.6Z"/><path class="cls-1" d="M457.34,92.39V78.24h5.22V92.91c0,2.76,1,4.26,3.18,4.26s3.25-1.5,3.25-4.26V78.24h5V92.39c0,6-2.69,9.28-8.28,9.28S457.34,98.36,457.34,92.39Z"/><path class="cls-1" d="M498.26,98.62c6.59-5.53,11-9.43,11-12.74,0-2.22-1.39-3.44-3.79-3.44-1.84,0-3.33,1.12-4.63,2.33L498,81.89a10.62,10.62,0,0,1,8.21-3.64c4.84,0,8.13,2.9,8.13,7.33,0,3.87-4,8-8.44,11.87,1.32-.13,3-.25,4.18-.25h5.45v4.47H498.26Z"/><path class="cls-1" d="M520,98.62c6.59-5.53,11-9.43,11-12.74,0-2.22-1.38-3.44-3.79-3.44-1.84,0-3.33,1.12-4.63,2.33l-2.86-2.88a10.62,10.62,0,0,1,8.21-3.64c4.84,0,8.13,2.9,8.13,7.33,0,3.87-4,8-8.43,11.87,1.31-.13,3-.25,4.17-.25h5.45v4.47H520Z"/></g></g></svg>